TITLE ""
FILE "1Q_t_1679-1688.mp3" MP3
  TRACK 01 AUDIO
    TITLE "1Q_t_1679-1688_01"
    INDEX 01 00:00:00
  TRACK 02 AUDIO
    TITLE "1Q_t_1679-1688_02"
    INDEX 01 00:00:08
  TRACK 03 AUDIO
    TITLE "1Q_t_1679-1688_03"
    INDEX 01 00:01:12
  TRACK 04 AUDIO
    TITLE "1Q_t_1679-1688_04"
    INDEX 01 00:01:23
  TRACK 05 AUDIO
    TITLE "1Q_t_1679-1688_05"
    INDEX 01 00:02:43
  TRACK 06 AUDIO
    TITLE "1Q_t_1679-1688_06"
    INDEX 01 00:02:50
  TRACK 07 AUDIO
    TITLE "1Q_t_1679-1688_07"
    INDEX 01 00:06:34
  TRACK 08 AUDIO
    TITLE "1Q_t_1679-1688_08"
    INDEX 01 00:07:06
  TRACK 09 AUDIO
    TITLE "1Q_t_1679-1688_09"
    INDEX 01 00:08:08
  TRACK 10 AUDIO
    TITLE "1Q_t_1679-1688_10"
    INDEX 01 00:08:20
  TRACK 11 AUDIO
    TITLE "1Q_t_1679-1688_11"
    INDEX 01 00:10:56
  TRACK 12 AUDIO
    TITLE "1Q_t_1679-1688_12"
    INDEX 01 00:10:64
  TRACK 13 AUDIO
    TITLE "1Q_t_1679-1688_13"
    INDEX 01 00:14:42
  TRACK 14 AUDIO
    TITLE "1Q_t_1679-1688_14"
    INDEX 01 00:15:14
  TRACK 15 AUDIO
    TITLE "1Q_t_1679-1688_15"
    INDEX 01 00:16:27
  TRACK 16 AUDIO
    TITLE "1Q_t_1679-1688_16"
    INDEX 01 00:16:41
  TRACK 17 AUDIO
    TITLE "1Q_t_1679-1688_17"
    INDEX 01 00:17:71
  TRACK 18 AUDIO
    TITLE "1Q_t_1679-1688_18"
    INDEX 01 00:18:04
  TRACK 19 AUDIO
    TITLE "1Q_t_1679-1688_19"
    INDEX 01 00:21:58
  TRACK 20 AUDIO
    TITLE "1Q_t_1679-1688_20"
    INDEX 01 00:22:30
  TRACK 21 AUDIO
    TITLE "1Q_t_1679-1688_21"
    INDEX 01 00:23:39
  TRACK 22 AUDIO
    TITLE "1Q_t_1679-1688_22"
    INDEX 01 00:23:51
  TRACK 23 AUDIO
    TITLE "1Q_t_1679-1688_23"
    INDEX 01 00:26:68
  TRACK 24 AUDIO
    TITLE "1Q_t_1679-1688_24"
    INDEX 01 00:27:03
  TRACK 25 AUDIO
    TITLE "1Q_t_1679-1688_25"
    INDEX 01 00:30:51
  TRACK 26 AUDIO
    TITLE "1Q_t_1679-1688_26"
    INDEX 01 00:31:23
  TRACK 27 AUDIO
    TITLE "1Q_t_1679-1688_27"
    INDEX 01 00:32:49
  TRACK 28 AUDIO
    TITLE "1Q_t_1679-1688_28"
    INDEX 01 00:32:59
  TRACK 29 AUDIO
    TITLE "1Q_t_1679-1688_29"
    INDEX 01 00:34:11
  TRACK 30 AUDIO
    TITLE "1Q_t_1679-1688_30"
    INDEX 01 00:34:21
  TRACK 31 AUDIO
    TITLE "1Q_t_1679-1688_31"
    INDEX 01 00:39:12
  TRACK 32 AUDIO
    TITLE "1Q_t_1679-1688_32"
    INDEX 01 00:39:59
  TRACK 33 AUDIO
    TITLE "1Q_t_1679-1688_33"
    INDEX 01 00:40:67
  TRACK 34 AUDIO
    TITLE "1Q_t_1679-1688_34"
    INDEX 01 00:41:03
  TRACK 35 AUDIO
    TITLE "1Q_t_1679-1688_35"
    INDEX 01 00:43:34
  TRACK 36 AUDIO
    TITLE "1Q_t_1679-1688_36"
    INDEX 01 00:43:41
  TRACK 37 AUDIO
    TITLE "1Q_t_1679-1688_37"
    INDEX 01 00:47:65
  TRACK 38 AUDIO
    TITLE "1Q_t_1679-1688_38"
    INDEX 01 00:48:37
  TRACK 39 AUDIO
    TITLE "1Q_t_1679-1688_39"
    INDEX 01 00:49:48
  TRACK 40 AUDIO
    TITLE "1Q_t_1679-1688_40"
    INDEX 01 00:49:66
  TRACK 41 AUDIO
    TITLE "1Q_t_1679-1688_41"
    INDEX 01 00:51:68
  TRACK 42 AUDIO
    TITLE "1Q_t_1679-1688_42"
    INDEX 01 00:52:03
  TRACK 43 AUDIO
    TITLE "1Q_t_1679-1688_43"
    INDEX 01 00:56:62
  TRACK 44 AUDIO
    TITLE "1Q_t_1679-1688_44"
    INDEX 01 00:57:36
  TRACK 45 AUDIO
    TITLE "1Q_t_1679-1688_45"
    INDEX 01 00:58:39
  TRACK 46 AUDIO
    TITLE "1Q_t_1679-1688_46"
    INDEX 01 00:58:53
  TRACK 47 AUDIO
    TITLE "1Q_t_1679-1688_47"
    INDEX 01 01:01:10
  TRACK 48 AUDIO
    TITLE "1Q_t_1679-1688_48"
    INDEX 01 01:01:18
  TRACK 49 AUDIO
    TITLE "1Q_t_1679-1688_49"
    INDEX 01 01:06:62
  TRACK 50 AUDIO
    TITLE "1Q_t_1679-1688_50"
    INDEX 01 01:07:34
  TRACK 51 AUDIO
    TITLE "1Q_t_1679-1688_51"
    INDEX 01 01:08:55
  TRACK 52 AUDIO
    TITLE "1Q_t_1679-1688_52"
    INDEX 01 01:08:67
  TRACK 53 AUDIO
    TITLE "1Q_t_1679-1688_53"
    INDEX 01 01:12:43
  TRACK 54 AUDIO
    TITLE "1Q_t_1679-1688_54"
    INDEX 01 01:12:51
  TRACK 55 AUDIO
    TITLE "1Q_t_1679-1688_55"
    INDEX 01 01:17:52
  TRACK 56 AUDIO
    TITLE "1Q_t_1679-1688_56"
    INDEX 01 01:18:22
  TRACK 57 AUDIO
    TITLE "1Q_t_1679-1688_57"
    INDEX 01 01:19:53
  TRACK 58 AUDIO
    TITLE "1Q_t_1679-1688_58"
    INDEX 01 01:19:63
  TRACK 59 AUDIO
    TITLE "1Q_t_1679-1688_59"
    INDEX 01 01:21:40
  TRACK 60 AUDIO
    TITLE "1Q_t_1679-1688_60"
    INDEX 01 01:21:50
  TRACK 61 AUDIO
    TITLE "1Q_t_1679-1688_61"
    INDEX 01 01:25:50
